<?xml version="1.0"?>
<svg width="900" height="400" xmlns="http://www.w3.org/2000/svg" xmlns:svg="http://www.w3.org/2000/svg" version="1.1" xml:space="preserve">
 <metadata id="metadata8">image/svg+xml</metadata>
 <defs id="defs6">
  <clipPath clipPathUnits="userSpaceOnUse" id="clipPath18">
   <path d="m0,769l612,0l0,-792l-612,0l0,792z" id="path16"/>
  </clipPath>
 </defs>
 <g class="layer">
  <title>Layer 1</title>
  <g id="g10" transform="matrix(1.3972 0 0 -1.3972 20.6626 1124.03)">
   <g id="g20" transform="translate(356.211 444.778)">
    <path d="m2.83,264.7l-93.06,0c-4.92,-27.61 -13.04,-74.8 -17.09,-97.9l39.55,0c3.01,17.37 11.31,64.97 14.96,85.8l29.71,0c12.45,0 21.41,-8.42 19.32,-22.82c-1.99,-11.39 -6.78,-38.86 -10.99,-62.98l39.54,0c2.81,16.21 8.29,47.6 10.87,62.36c3.52,20.09 -7.06,35.54 -32.81,35.54" fill="#892c76" fill-rule="nonzero" id="path22"/>
   </g>
   <g id="g24">
    <path d="m149.17,677.77c4.9,11.68 12.12,18.98 25.61,22.1c5.98,1.39 11.08,1.34 18.23,-0.19c10.6,-2.25 13.86,-14.62 9.2,-24.25c-5.21,-10.76 -12.16,-13.16 -21.24,-15.03c-9.86,-2.04 -22.85,-2.34 -37.14,-1.35c1,5.98 3.52,14.39 5.34,18.72m7.73,-54.52c-18.36,3.05 -14.94,25 -14.94,25c16.33,-1.93 36.87,-1.48 50.93,-0.07c12.16,1.19 36.17,4.2 43.01,22.92c6.77,18.56 1.64,33.56 -20.75,37.73c-16.49,3.06 -31.8,3.21 -51.8,0.54c-28.57,-3.82 -44.24,-13.5 -51.24,-30.5c-3.84,-9.33 -6.16,-20.46 -7.16,-30.54c-1.82,-18.37 1.64,-35.21 24.61,-37.06c30.8,-2.47 55.04,-1.92 80.74,2.09l8,11.43c-24.38,-4.09 -52.12,-3.08 -61.4,-1.54" fill="#892c76" fill-rule="nonzero" id="path26"/>
   </g>
   <g id="g28" transform="translate(534.631 413.073)">
    <path d="m2.83,264.7c4.9,11.68 12.12,18.98 25.6,22.1c5.99,1.39 11.08,1.34 18.23,-0.19c10.61,-2.25 13.86,-14.62 9.2,-24.25c-5.2,-10.76 -12.15,-13.16 -21.23,-15.03c-9.86,-2.04 -22.85,-2.34 -37.14,-1.35c1,5.98 3.52,14.39 5.34,18.72m7.73,-54.52c-18.36,3.05 -14.94,25 -14.94,25c16.32,-1.93 36.86,-1.48 50.93,-0.07c12.16,1.19 36.17,4.2 43,22.92c6.78,18.56 1.64,33.56 -20.74,37.73c-16.49,3.06 -31.81,3.21 -51.81,0.54c-28.56,-3.82 -44.23,-13.5 -51.23,-30.5c-3.84,-9.33 -6.16,-20.46 -7.15,-30.54c-1.83,-18.37 1.63,-35.21 24.6,-37.06c30.8,-2.47 55.04,-1.92 80.73,2.09l8,11.43c-24.37,-4.09 -52.12,-3.08 -61.39,-1.54" fill="#892c76" fill-rule="nonzero" id="path30"/>
   </g>
   <g id="g32" transform="translate(34.7393 412.14)">
    <path d="m2.83,264.7c2.09,11.95 6.34,18.86 19.32,21.23c11.61,2.12 33.11,0.72 45.75,-0.69l8.47,12.11c-19.13,1.38 -51.43,2.95 -70.55,0.18c-27.31,-3.96 -38.43,-9.51 -41.49,-26.99c-1.84,-10.45 -10.09,-57.7 -12.43,-71.1l39.54,0c2.72,15.6 9.46,54.22 11.39,65.26" fill="#892c76" fill-rule="nonzero" id="path34"/>
   </g>
   <g id="g36" transform="translate(461.649 504.766)">
    <path d="m2.83,264.7c-22.5,-15.76 -30.1,-35.09 -34.27,-58.86l-16.73,-95.88c-3.81,-21.84 -5.45,-33.24 -9.15,-43.91c-3.01,-9.01 -12.77,-22.18 -29.05,-22.39l-7.13,-10.16c21.03,-1.02 37.85,5.05 49.72,13.35c22.5,15.75 30.79,38.27 34.94,61.99c0.29,1.63 7.61,43.59 11.08,63.49c2.57,14.12 9.94,21.88 25.56,22.07l7.24,10.32l-27.16,0c3.83,21.98 5.25,31.52 8.4,40.65c3.09,8.98 12.77,22.17 29.04,22.39l7.21,10.28c-21.02,1.02 -37.84,-5.04 -49.7,-13.34" fill="#892c76" fill-rule="nonzero" id="path38"/>
   </g>
  </g>
 </g>
</svg>